<svg width="192" height="25" viewBox="0 0 192 25" fill="none" xmlns="http://www.w3.org/2000/svg">
<g clip-path="url(#clip0_410_61)">
<path d="M11.9988 24.9975C18.6255 24.9975 23.9975 19.6255 23.9975 12.9988C23.9975 6.37203 18.6255 1 11.9988 1C5.37203 1 0 6.37203 0 12.9988C0 19.6255 5.37203 24.9975 11.9988 24.9975Z" fill="url(#paint0_linear_410_61)"/>
<path d="M11.9988 23.793C17.9603 23.793 22.793 18.9603 22.793 12.9988C22.793 7.03735 17.9603 2.20462 11.9988 2.20462C6.03735 2.20462 1.20462 7.03735 1.20462 12.9988C1.20462 18.9603 6.03735 23.793 11.9988 23.793Z" stroke="white" stroke-width="76.9783" stroke-miterlimit="10"/>
<path d="M10.4395 14.2821L12.0357 9.42446L13.6615 14.2821H10.4395ZM17.2062 17.3538L15.8859 13.7279H16.6741C16.8251 13.7266 16.9694 13.6659 17.0759 13.5589C17.1824 13.4519 17.2425 13.3073 17.2432 13.1564C17.2432 13.0852 17.2291 13.0147 17.2019 12.949C17.1747 12.8832 17.1348 12.8235 17.0844 12.7732C17.0341 12.7228 16.9744 12.6829 16.9086 12.6557C16.8429 12.6285 16.7724 12.6144 16.7012 12.6144H15.4696L15.2725 12.0503H16.6741C16.8219 12.0504 16.9638 11.9927 17.0696 11.8897C17.1755 11.7866 17.2368 11.6463 17.2407 11.4986C17.241 11.4237 17.2265 11.3496 17.198 11.2804C17.1696 11.2112 17.1277 11.1484 17.0748 11.0955C17.0219 11.0426 16.959 11.0007 16.8898 10.9722C16.8206 10.9437 16.7465 10.9292 16.6717 10.9295H14.8513L13.866 8.2199C13.7188 7.83277 13.4755 7.48945 13.159 7.22227C12.8463 6.96513 12.4501 6.83188 12.0456 6.84784C11.64 6.83496 11.2433 6.96779 10.9272 7.22227C10.6106 7.48982 10.3666 7.83296 10.2178 8.2199L9.18568 10.9542H7.37515C7.23054 10.9542 7.09182 11.0115 6.98934 11.1135C6.88685 11.2155 6.82895 11.354 6.8283 11.4986C6.8283 11.6488 6.88799 11.7929 6.99424 11.8992C7.10049 12.0054 7.2446 12.0651 7.39486 12.0651H8.76938L8.55754 12.6144H7.32589C7.18085 12.6144 7.04176 12.6721 6.9392 12.7746C6.83665 12.8772 6.77903 13.0163 6.77903 13.1613C6.77903 13.3098 6.83786 13.4523 6.94266 13.5576C7.04745 13.6628 7.18968 13.7223 7.3382 13.7229H8.12892L6.78642 17.3538C6.70391 17.5586 6.65805 17.7762 6.65094 17.9968C6.66494 18.3062 6.7993 18.5979 7.02536 18.8097C7.27412 19.0251 7.59292 19.1425 7.92201 19.1397C8.19843 19.1549 8.47166 19.0746 8.6959 18.9122C8.92014 18.7499 9.08176 18.5154 9.15366 18.248L9.67342 16.6986H14.4547L14.9745 18.285C15.0558 18.5434 15.2213 18.7671 15.4444 18.9207C15.6676 19.0742 15.9357 19.1487 16.2061 19.1324C16.4131 19.1365 16.6174 19.0846 16.7973 18.9821C16.9534 18.8663 17.0919 18.7285 17.2087 18.5732C17.3104 18.3984 17.3624 18.199 17.3589 17.9968C17.3263 17.7818 17.2752 17.5699 17.2062 17.3637V17.3538Z" fill="#FEFEFE"/>
</g>
<path d="M36 0C42.6274 0 48 5.37257 48 12C48 18.6274 42.6274 24 36 24C29.3726 24 24 18.6274 24 12C24 5.37257 29.3726 0 36 0Z" fill="black"/>
<path d="M30.2366 9.79612C30.2366 9.88594 30.3264 9.97577 30.4162 9.97577H32.5989V11.0853H30.4162C30.3264 11.0853 30.2366 11.1751 30.2366 11.2649V13.0944C30.2366 13.1842 30.3264 13.2741 30.4162 13.2741H32.5989V17.653C32.5989 17.7429 32.6585 17.8032 32.7483 17.8032H34.8418C34.9317 17.8032 34.9913 17.7435 34.9913 17.653V13.5154C34.9913 13.4256 35.051 13.3653 35.1408 13.3653H36.816C36.8757 13.3653 36.9353 13.3954 36.9655 13.4551L38.8197 17.7442C38.8498 17.8039 38.9095 17.8341 38.9691 17.8341H41.2121C41.3314 17.8341 41.3918 17.7141 41.3616 17.6242L39.5074 13.4249C39.4773 13.3351 39.5074 13.2453 39.5973 13.2151C40.4942 12.8853 41.0626 12.0754 41.0626 10.9954V8.29577C41.0626 6.91612 39.9264 5.77646 38.5502 5.77646H32.7483C32.6585 5.77646 32.5989 5.8368 32.5989 5.92663V7.78629H30.4162C30.3264 7.78629 30.2366 7.87612 30.2366 7.96594V9.79612Z" fill="white"/>
<path d="M34.9913 8.20596C34.9913 8.11613 35.051 8.05579 35.1408 8.05579H37.9522C38.341 8.05579 38.6702 8.38561 38.6702 8.77579V10.3954C38.6702 10.7856 38.341 11.1154 37.9522 11.1154H35.1408C35.051 11.1154 34.9913 11.0551 34.9913 10.9653V8.20596Z" fill="black"/>
<mask id="mask0_410_61" style="mask-type:alpha" maskUnits="userSpaceOnUse" x="48" y="0" width="24" height="24">
<path d="M48 6.10352e-05H72V24H48V6.10352e-05Z" fill="white"/>
</mask>
<g mask="url(#mask0_410_61)">
<path fill-rule="evenodd" clip-rule="evenodd" d="M60 6.10352e-05C66.6276 6.10352e-05 72 5.37252 72 12.0001C72 18.6271 66.6276 24.0001 60 24.0001C53.3725 24.0001 48 18.6271 48 12.0001C48 5.37252 53.3725 6.10352e-05 60 6.10352e-05Z" fill="#2775CA"/>
</g>
<path fill-rule="evenodd" clip-rule="evenodd" d="M57.7505 20.3433C57.7505 20.6255 57.5295 20.7859 57.2565 20.7007C53.6283 19.5432 50.9977 16.1411 50.9977 12.1268C50.9977 8.11268 53.6283 4.7104 57.2565 3.55295C57.5295 3.46827 57.7505 3.62809 57.7505 3.91036V4.60718C57.7505 4.79509 57.6049 5.01627 57.4259 5.07749C54.5553 6.13159 52.4989 8.88927 52.4989 12.122C52.4989 15.3548 54.5553 18.113 57.4259 19.1666C57.6049 19.2326 57.7505 19.4489 57.7505 19.6374V20.3433Z" fill="white"/>
<path fill-rule="evenodd" clip-rule="evenodd" d="M60.7482 17.7502C60.7482 17.9575 60.5788 18.1269 60.3718 18.1269H59.6234C59.4164 18.1269 59.2471 17.9575 59.2471 17.7502V16.5646C57.6093 16.3435 56.8096 15.4256 56.593 14.1787C56.5553 13.9667 56.7246 13.7739 56.9412 13.7739H57.7977C57.9764 13.7739 58.1271 13.9011 58.1648 14.0796C58.3249 14.8232 58.753 15.3926 60.0658 15.3926C61.0352 15.3926 61.7225 14.8514 61.7225 14.0424C61.7225 13.2326 61.3176 12.9269 59.8964 12.6914C57.7977 12.4091 56.8048 11.7737 56.8048 10.1267C56.8048 8.85619 57.7649 7.8681 59.2519 7.65619V6.49382C59.2519 6.28669 59.4214 6.11719 59.6282 6.11719H60.3766C60.5836 6.11719 60.7529 6.28669 60.7529 6.49382V7.68919C61.9624 7.90601 62.7294 8.5926 62.9789 9.73137C63.0258 9.94819 62.8565 10.1501 62.6354 10.1501H61.8447C61.6753 10.1501 61.5342 10.0371 61.4825 9.87251C61.2707 9.14814 60.7529 8.83764 59.854 8.83764C58.8612 8.83764 58.3482 9.31751 58.3482 9.99032C58.3482 10.7009 58.6401 11.0583 60.1649 11.2799C62.2258 11.5622 63.2896 12.1503 63.2896 13.906C63.2896 15.2376 62.3012 16.3153 60.7529 16.5646V17.7502H60.7482Z" fill="white"/>
<path fill-rule="evenodd" clip-rule="evenodd" d="M62.7436 20.7007C62.4708 20.7859 62.2495 20.6255 62.2495 20.3433V19.647C62.2495 19.4399 62.3766 19.247 62.5742 19.1761C65.4448 18.122 67.5011 15.3644 67.5011 12.1316C67.5011 8.89882 65.4448 6.14114 62.5742 5.08705C62.3954 5.02105 62.2495 4.80478 62.2495 4.61618V3.91991C62.2495 3.63764 62.4708 3.47305 62.7436 3.56196C66.3718 4.72009 69.0024 8.12223 69.0024 12.1364C68.9979 16.141 66.3718 19.5385 62.7436 20.7007Z" fill="white"/>
<path d="M84 24C90.6274 24 96 18.6274 96 12C96 5.37258 90.6274 0 84 0C77.3726 0 72 5.37258 72 12C72 18.6274 77.3726 24 84 24Z" fill="url(#paint1_radial_410_61)"/>
<path d="M82.1514 14.5081L88.9189 7.72974C88.9189 7.72974 85.827 3.97839 80.973 6.07568C80.973 6.07568 76.7892 7.84866 77.2611 12.5369C77.4317 14.2316 78.1427 15.8301 79.4022 16.9767C80.5499 18.0216 82.3278 18.9683 84.8757 18.6378C84.8757 18.6378 86.7351 18.4216 88.1405 17.0378L89.7189 18.5946C89.7189 18.5946 85.6216 22.8757 79.427 19.6649C79.427 19.6649 76.0757 17.9892 75.1243 13.4054C75.1243 13.4054 74.1514 7.41623 79.6 4.34596C79.6 4.34596 85.3946 0.951361 90.0865 5.7946L90.8865 5.10271C90.8865 5.10271 86.9189 0.691901 80.8973 2.70271C80.8973 2.70271 75.4919 4.34596 74.3892 9.47028C74.3892 9.47028 72.8108 15.3622 77.0054 19.0811C77.0054 19.0811 81.4486 23.6 87.5676 21.1135C87.5676 21.1135 89.2757 20.6162 91.1243 18.6162L88.1622 15.6324C88.1622 15.6324 86.1838 18.5405 82.3676 17.4487C82.3676 17.4487 77.373 16.3676 78.3784 10.6378C78.3784 10.6378 79.1351 6.77839 83.6324 6.3892C83.6324 6.3892 85.773 6.22704 87.427 7.6865L81.4378 13.7622L82.1514 14.5081Z" fill="white"/>
<path fill-rule="evenodd" clip-rule="evenodd" d="M115.76 4.34812L116.118 3.16368C115.95 3.00927 115.778 2.85952 115.602 2.71475L115.246 3.85968C115.422 4.017 115.594 4.17979 115.76 4.34812Z" fill="#FBC531"/>
<path fill-rule="evenodd" clip-rule="evenodd" d="M100.333 19.7451L99.9766 20.9226C100.146 21.0751 100.32 21.2225 100.498 21.3652L100.851 20.2267C100.673 20.0718 100.501 19.911 100.333 19.7451Z" fill="#FBC531"/>
<path fill-rule="evenodd" clip-rule="evenodd" d="M97.1013 12C97.1013 5.98082 101.981 1.10132 108 1.10132C109.912 1.10132 111.708 1.59419 113.271 2.45896L113.596 1.38301C111.925 0.500438 110.021 0 108 0C101.373 0 96 5.37255 96 12C96 14.5602 96.8023 16.9327 98.1684 18.8809L98.5947 17.5085C97.6459 15.8921 97.1013 14.0098 97.1013 12Z" fill="#FBC531"/>
<path fill-rule="evenodd" clip-rule="evenodd" d="M117.917 5.24274L117.486 6.63118C118.385 8.21594 118.899 10.0479 118.899 12C118.899 18.0192 114.019 22.8987 108 22.8987C106.13 22.8987 104.371 22.4276 102.833 21.5981L102.508 22.6721C104.154 23.5206 106.021 24 108 24C114.627 24 120 18.6274 120 12C120 9.49381 119.231 7.16739 117.917 5.24274Z" fill="#FBC531"/>
<path fill-rule="evenodd" clip-rule="evenodd" d="M115.036 4.53376C115.213 4.69995 115.383 4.87239 115.547 5.05058L115.76 4.34812C115.594 4.17979 115.422 4.017 115.246 3.85968L115.036 4.53376Z" fill="#FBC531"/>
<path fill-rule="evenodd" clip-rule="evenodd" d="M100.544 19.0474L100.333 19.745C100.5 19.911 100.673 20.0718 100.851 20.2267L101.06 19.5559C100.882 19.3924 100.71 19.2229 100.544 19.0474Z" fill="#FBC531"/>
<path fill-rule="evenodd" clip-rule="evenodd" d="M108 22.8987C114.019 22.8987 118.899 18.0192 118.899 12C118.899 10.0479 118.385 8.21594 117.486 6.63117L117.917 5.24273C117.398 4.4823 116.794 3.78482 116.118 3.16367L112.301 15.7797L113.501 19.4597L117.219 7.49221C117.885 8.85293 118.26 10.3826 118.26 12C118.26 17.6664 113.666 22.26 108 22.26C106.194 22.26 104.497 21.7925 103.022 20.9729L105.255 13.5939L104.055 9.91391L100.498 21.3652C101.12 21.8644 101.793 22.3033 102.508 22.672L102.833 21.5981C104.371 22.4276 106.13 22.8987 108 22.8987Z" fill="white"/>
<path fill-rule="evenodd" clip-rule="evenodd" d="M112.899 19.6H111.24C110.787 19.6 110.388 19.3047 110.256 18.8724L105.839 4.41999H107.397C107.885 4.41999 108.317 4.73851 108.461 5.20536L112.899 19.6ZM108.349 19.6C107.896 19.6 107.497 19.3047 107.365 18.8724L102.948 4.41999H104.506C104.994 4.41999 105.426 4.73851 105.57 5.20536L110.008 19.6H108.349ZM115.036 4.53374L111.945 14.4857L110.745 10.8057L113.081 3.08487C111.583 2.22925 109.849 1.73999 108 1.73999C102.334 1.73999 97.74 6.33352 97.74 12C97.74 13.6785 98.1432 15.2628 98.8577 16.6615L102.499 4.93999L103.699 8.61999L100.544 19.0474C100.71 19.2229 100.882 19.3924 101.06 19.5559L104.055 9.91391L105.255 13.5939L103.022 20.9729C104.497 21.7925 106.194 22.26 108 22.26C113.666 22.26 118.26 17.6664 118.26 12C118.26 10.3826 117.885 8.85292 117.219 7.49221L113.501 19.4597L112.301 15.7797L115.547 5.05057C115.383 4.87237 115.213 4.69994 115.036 4.53374Z" fill="#FBC531"/>
<path fill-rule="evenodd" clip-rule="evenodd" d="M100.544 19.0474L103.699 8.62L102.499 4.94L98.8578 16.6615C98.1432 15.2628 97.74 13.6785 97.74 12C97.74 6.33354 102.334 1.74 108 1.74C109.849 1.74 111.583 2.22926 113.081 3.08488L110.745 10.8058L111.945 14.4857L115.602 2.71474C114.982 2.20685 114.31 1.76017 113.596 1.38302L113.271 2.45896C111.708 1.59419 109.912 1.10132 108 1.10132C101.981 1.10132 97.1013 5.98083 97.1013 12C97.1013 14.0098 97.6459 15.8921 98.5947 17.5085L98.1684 18.8809C98.6926 19.6285 99.2996 20.3135 99.9766 20.9226L100.544 19.0474Z" fill="white"/>
<path fill-rule="evenodd" clip-rule="evenodd" d="M107.397 4.42001H105.839L110.256 18.8724C110.388 19.3047 110.787 19.6 111.24 19.6H112.899L108.461 5.20538C108.317 4.73853 107.885 4.42001 107.397 4.42001Z" fill="white"/>
<path fill-rule="evenodd" clip-rule="evenodd" d="M104.506 4.42001H102.948L107.365 18.8724C107.497 19.3047 107.896 19.6 108.349 19.6H110.008L105.57 5.20538C105.426 4.73853 104.994 4.42001 104.506 4.42001Z" fill="white"/>
<path fill-rule="evenodd" clip-rule="evenodd" d="M144 12C144 18.6274 138.627 24 132 24C125.373 24 120 18.6274 120 12C120 5.37255 125.373 0 132 0C138.627 0 144 5.37255 144 12Z" fill="#282A2E"/>
<path fill-rule="evenodd" clip-rule="evenodd" d="M132 3.56149L130.215 8.79469H133.785L132 3.56149Z" fill="#BB242B"/>
<path fill-rule="evenodd" clip-rule="evenodd" d="M133.785 9.40317L132 16.9081L130.215 9.40317" fill="#CDCECA"/>
<path fill-rule="evenodd" clip-rule="evenodd" d="M139.827 6.03175C140.976 7.33339 141.655 8.93171 141.655 10.6608C141.655 15.0297 137.332 18.5714 132 18.5714C126.668 18.5714 122.345 15.0297 122.345 10.6608C122.345 8.93171 123.024 7.33339 124.173 6.03175C122.482 7.57856 121.453 9.62864 121.453 11.8778C121.453 16.6948 126.175 20.5998 132 20.5998C137.825 20.5998 142.547 16.6948 142.547 11.8778C142.547 9.62864 141.518 7.57856 139.827 6.03175ZM139.93 9.5689C139.655 6.25511 136.465 3.611 132.483 3.41177L132.951 4.78455C136.201 5.09907 138.887 7.00329 139.93 9.5689ZM124.07 9.5689C124.345 6.25511 127.535 3.611 131.517 3.41177L131.049 4.78455C127.799 5.09907 125.113 7.00329 124.07 9.5689Z" fill="#CDCECA"/>
<path fill-rule="evenodd" clip-rule="evenodd" d="M175.079 8.24106C175.04 8.57483 175 8.9245 174.976 9.27417C174.372 9.69536 173.808 10.1245 173.283 10.5536C173.013 10.7762 172.751 10.9987 172.505 11.2291C170.566 9.25033 169.739 7.4702 170.272 6.55629C170.74 5.7457 172.314 5.51523 174.523 5.95232C174.611 5.57086 174.698 5.2053 174.801 4.85563C172.123 4.31523 170.081 4.67285 169.31 6C169.103 6.34967 169 6.74702 169 7.16821V7.20795C169.016 9.09139 170.868 11.6106 173.959 13.9868C174.277 14.2331 174.619 14.4795 174.968 14.7258C175.032 15.4967 175.127 16.2358 175.246 16.9272C175.302 17.2371 175.358 17.5391 175.421 17.8331C172.743 18.5245 170.796 18.3497 170.264 17.4358C169.795 16.6252 170.383 15.1391 171.861 13.4464L171.09 12.6358C169.262 14.702 168.531 16.6649 169.302 18C169.842 18.9377 171.011 19.3828 172.584 19.3828C174.166 19.3828 176.152 18.9298 178.33 18.0477C178.385 18.0238 178.441 18 178.505 17.9762C178.886 17.8172 179.268 17.6503 179.657 17.4676C179.673 17.4596 179.689 17.4517 179.705 17.4437C180.396 17.7616 181.079 18.0477 181.755 18.294C182.049 18.4053 182.343 18.5007 182.629 18.596C181.89 21.2662 180.762 22.8715 179.705 22.8715C178.767 22.8715 177.774 21.6159 177.05 19.4702C176.685 19.5974 176.327 19.7086 175.97 19.804C176.844 22.3947 178.171 23.9841 179.705 23.9841C181.938 23.9841 183.718 20.6305 184.33 15.743C184.37 15.4093 184.401 15.0596 184.433 14.7179C185.061 14.2808 185.649 13.8278 186.197 13.3669C186.229 13.343 186.261 13.3192 186.293 13.2874C186.499 13.1126 186.698 12.9377 186.897 12.755C188.844 14.7258 189.67 16.5139 189.138 17.4278C188.701 18.1828 187.262 18.4371 185.291 18.1113C185.156 18.0874 185.029 18.0636 184.894 18.0397C184.807 18.4132 184.719 18.7709 184.616 19.1205C184.783 19.1523 184.95 19.1841 185.109 19.2079C185.736 19.3113 186.317 19.3669 186.849 19.3669C188.446 19.3669 189.583 18.898 190.107 17.9921C190.807 16.7841 190.298 15.0278 188.669 13.057C187.827 12.0318 186.73 10.9987 185.458 10.0132C185.132 9.75894 184.791 9.51258 184.449 9.26623C184.385 8.49536 184.29 7.75629 184.163 7.05695C184.107 6.74702 184.052 6.44503 183.988 6.15099C184.441 6.03179 184.878 5.93642 185.299 5.8649C187.27 5.53907 188.709 5.79338 189.146 6.54834C189.607 7.34305 189.042 8.79735 187.612 10.4583C187.89 10.7285 188.144 10.9987 188.383 11.2609C188.486 11.1497 188.581 11.0305 188.669 10.9192C190.29 8.94834 190.807 7.19205 190.107 5.98411C189.408 4.77616 187.636 4.33907 185.117 4.76027C183.948 4.95099 182.669 5.3245 181.342 5.83311C181.286 5.85695 181.238 5.87285 181.183 5.89669C180.738 6.07152 180.293 6.26225 179.848 6.46887C179.808 6.48477 179.768 6.50861 179.728 6.5245C179.029 6.19868 178.338 5.90464 177.67 5.65828C177.376 5.54702 177.082 5.45166 176.796 5.35629C177.535 2.69404 178.664 1.08874 179.721 1.08874C180.658 1.08874 181.66 2.35232 182.383 4.49801C182.748 4.37881 183.106 4.26755 183.464 4.16424C182.566 1.59735 181.238 0 179.697 0C177.472 0 175.683 3.35364 175.079 8.24106ZM182.184 7.83576C182.168 7.81987 182.144 7.81192 182.128 7.80397C181.755 7.5894 181.374 7.38278 181.008 7.18411C181.04 7.16821 181.072 7.15232 181.103 7.14437C181.556 6.95364 182.009 6.77881 182.446 6.62781C182.597 6.57219 182.748 6.5245 182.891 6.47682C182.955 6.77086 183.011 7.0649 183.066 7.37484C183.13 7.73245 183.177 8.09801 183.225 8.47152C182.883 8.25695 182.534 8.04238 182.184 7.83576ZM176.327 7.41457C176.383 7.08874 176.438 6.77881 176.51 6.47682C176.804 6.57219 177.098 6.66755 177.4 6.78676C177.726 6.90596 178.06 7.04106 178.401 7.18411C178.028 7.38278 177.646 7.5894 177.273 7.80397C177.257 7.81192 177.241 7.81987 177.225 7.83576C176.868 8.04238 176.518 8.25695 176.176 8.47152C176.224 8.10596 176.272 7.75629 176.327 7.41457ZM177.829 15.2344C177.559 15.0834 177.297 14.9245 177.042 14.7656C176.693 14.551 176.359 14.3364 176.033 14.1139C175.985 13.4384 175.962 12.7311 175.962 12C175.962 11.6185 175.97 11.245 175.985 10.8795C176.001 10.5377 176.017 10.2119 176.041 9.88609C176.605 9.50464 177.201 9.13113 177.829 8.76556C178.068 8.62252 178.314 8.48742 178.552 8.36027C178.934 8.15364 179.315 7.96291 179.697 7.77219C180.309 8.06623 180.928 8.4 181.564 8.76556C181.834 8.9245 182.097 9.0755 182.351 9.23444C182.701 9.44901 183.034 9.66358 183.36 9.88609C183.408 10.5616 183.432 11.2689 183.432 12C183.432 12.3815 183.424 12.755 183.408 13.1205C183.392 13.4543 183.376 13.7881 183.352 14.1139C182.788 14.4954 182.192 14.8689 181.564 15.2344C181.397 15.3298 181.238 15.4252 181.072 15.5126C180.65 15.751 180.229 15.9656 179.816 16.1722C179.776 16.1881 179.736 16.2119 179.697 16.2278C179.077 15.9258 178.449 15.5921 177.829 15.2344ZM173.903 12.5086C173.697 12.3417 173.506 12.1669 173.315 12C173.577 11.7695 173.848 11.5311 174.134 11.3007C174.372 11.1099 174.619 10.9113 174.881 10.7205C174.865 11.0384 174.857 11.3642 174.857 11.6901C174.857 11.7934 174.857 11.8967 174.857 12C174.857 12.4371 174.865 12.8583 174.881 13.2795C174.539 13.0252 174.205 12.7709 173.903 12.5086ZM184.544 12.3179C184.544 12.2146 184.544 12.1113 184.544 12C184.544 11.5629 184.536 11.1417 184.521 10.7205C184.862 10.9748 185.188 11.2371 185.498 11.4914C185.697 11.6583 185.895 11.8331 186.078 12C185.872 12.1828 185.657 12.3735 185.434 12.5563C185.403 12.5801 185.371 12.6119 185.339 12.6358C185.077 12.8503 184.799 13.0728 184.513 13.2874C184.528 12.9695 184.544 12.6437 184.544 12.3179ZM176.335 16.6252C176.272 16.2676 176.224 15.902 176.176 15.5285C176.518 15.743 176.86 15.9497 177.217 16.1563C177.233 16.1722 177.257 16.1801 177.273 16.1881C177.646 16.4026 178.02 16.6093 178.401 16.8079C178.401 16.8079 178.393 16.8079 178.393 16.8159C177.996 16.9828 177.607 17.1338 177.225 17.2768C177.17 17.3007 177.114 17.3166 177.058 17.3404C176.876 17.404 176.693 17.4676 176.51 17.5232C176.446 17.2371 176.391 16.9351 176.335 16.6252ZM182.001 17.2132C181.668 17.0861 181.334 16.9589 180.992 16.8159C181.04 16.7921 181.087 16.7682 181.135 16.7444C181.461 16.5695 181.787 16.3868 182.121 16.204C182.216 16.1483 182.311 16.0927 182.399 16.0371C182.677 15.8702 182.947 15.7033 183.217 15.5364C183.17 15.894 183.122 16.2517 183.066 16.5854C183.011 16.9113 182.947 17.2212 182.883 17.5311C182.597 17.4278 182.303 17.3245 182.001 17.2132ZM178.266 12C178.266 11.2132 178.91 10.5695 179.697 10.5695C180.483 10.5695 181.127 11.2132 181.127 12C181.127 12.7868 180.483 13.4305 179.697 13.4305C178.91 13.4305 178.266 12.7868 178.266 12Z" fill="url(#paint2_linear_410_61)"/>
<path d="M156 24C162.627 24 168 18.6274 168 12C168 5.37258 162.627 0 156 0C149.373 0 144 5.37258 144 12C144 18.6274 149.373 24 156 24Z" fill="#FF1F43"/>
<path d="M149.25 5.25H152.4L157.8 14.8312V5.25H160.5V18.75H156.9L149.25 5.25Z" fill="white"/>
<defs>
<linearGradient id="paint0_linear_410_61" x1="4.99805" y1="5.41671" x2="21.278" y2="23.0491" gradientUnits="userSpaceOnUse">
<stop stop-color="#FC8F55"/>
<stop offset="0.44" stop-color="#FE7A6A"/>
<stop offset="1" stop-color="#FE687C"/>
</linearGradient>
<radialGradient id="paint1_radial_410_61" cx="0" cy="0" r="1" gradientUnits="userSpaceOnUse" gradientTransform="translate(81.603 5.12076) scale(25.6069)">
<stop stop-color="#F2EC05"/>
<stop offset="0.06" stop-color="#EDEB07"/>
<stop offset="0.13" stop-color="#DFE70C"/>
<stop offset="0.2" stop-color="#C8E114"/>
<stop offset="0.28" stop-color="#A8D820"/>
<stop offset="0.35" stop-color="#7ECD2F"/>
<stop offset="0.43" stop-color="#4CBF41"/>
<stop offset="0.47" stop-color="#2FB74B"/>
<stop offset="0.55" stop-color="#33B765"/>
<stop offset="0.62" stop-color="#37B77A"/>
<stop offset="0.67" stop-color="#38B782"/>
<stop offset="0.84" stop-color="#0AAEA4"/>
</radialGradient>
<linearGradient id="paint2_linear_410_61" x1="170.918" y1="11.615" x2="189.744" y2="12.4405" gradientUnits="userSpaceOnUse">
<stop stop-color="#6B57A5"/>
<stop offset="1" stop-color="#59499E"/>
</linearGradient>
<clipPath id="clip0_410_61">
<rect width="24" height="24" fill="white" transform="translate(0 1)"/>
</clipPath>
</defs>
</svg>
