<svg width="700" height="400" viewBox="0 0 700 400" fill="none" xmlns="http://www.w3.org/2000/svg">
<g clip-path="url(#clip0_22_95)">
<rect width="700" height="400" rx="40" fill="black"/>
<path fill-rule="evenodd" clip-rule="evenodd" d="M-59.5198 51.7715L-151.444 143.695C-158.473 150.725 -158.473 162.122 -151.444 169.151L-59.5198 261.075C-52.4903 268.105 -41.0934 268.105 -34.0639 261.075L57.86 169.151C64.8894 162.122 64.8894 150.725 57.86 143.695L-34.0639 51.7715C-41.0934 44.7421 -52.4903 44.7421 -59.5198 51.7715ZM-152.858 142.281C-160.668 150.092 -160.668 162.755 -152.858 170.565L-60.934 262.489C-53.1235 270.3 -40.4602 270.3 -32.6497 262.489L59.2742 170.565C67.0847 162.755 67.0847 150.092 59.2742 142.281L-32.6497 50.3573C-40.4602 42.5468 -53.1235 42.5468 -60.934 50.3573L-152.858 142.281ZM70.5879 181.879L-21.336 273.803C-28.3654 280.833 -28.3654 292.229 -21.336 299.259L70.5879 391.183C77.6173 398.212 89.0143 398.212 96.0437 391.183L187.968 299.259C194.997 292.229 194.997 280.833 187.968 273.803L96.0437 181.879C89.0143 174.85 77.6173 174.85 70.5879 181.879ZM-22.7502 272.389C-30.5607 280.199 -30.5607 292.863 -22.7502 300.673L69.1737 392.597C76.9842 400.408 89.6474 400.407 97.4579 392.597L189.382 300.673C197.192 292.863 197.192 280.199 189.382 272.389L97.4579 180.465C89.6474 172.654 76.9842 172.654 69.1737 180.465L-22.7502 272.389ZM108.772 403.911L200.696 311.987C207.725 304.957 219.122 304.957 226.151 311.987L318.075 403.911C325.105 410.94 325.105 422.337 318.075 429.367L226.151 521.29C219.122 528.32 207.725 528.32 200.696 521.29L108.772 429.367C101.742 422.337 101.742 410.94 108.772 403.911ZM107.357 430.781C99.5469 422.97 99.5469 410.307 107.357 402.496L199.281 310.573C207.092 302.762 219.755 302.762 227.566 310.573L319.489 402.496C327.3 410.307 327.3 422.97 319.489 430.781L227.566 522.705C219.755 530.515 207.092 530.515 199.281 522.705L107.357 430.781ZM70.5879 -78.3361L-21.336 13.5878C-28.3654 20.6172 -28.3654 32.0142 -21.336 39.0436L70.5879 130.967C77.6173 137.997 89.0143 137.997 96.0437 130.967L187.968 39.0436C194.997 32.0142 194.997 20.6172 187.968 13.5878L96.0437 -78.3361C89.0143 -85.3655 77.6173 -85.3655 70.5879 -78.3361ZM-22.7502 12.1736C-30.5607 19.984 -30.5607 32.6473 -22.7502 40.4578L69.1737 132.382C76.9842 140.192 89.6474 140.192 97.4579 132.382L189.382 40.4578C197.192 32.6473 197.192 19.984 189.382 12.1736L97.4579 -79.7503C89.6474 -87.5608 76.9842 -87.5608 69.1737 -79.7503L-22.7502 12.1736ZM108.772 143.695L200.696 51.7715C207.725 44.7421 219.122 44.7421 226.151 51.7715L318.075 143.695C325.105 150.725 325.105 162.122 318.075 169.151L226.151 261.075C219.122 268.105 207.725 268.105 200.696 261.075L108.772 169.151C101.742 162.122 101.742 150.725 108.772 143.695ZM107.357 170.565C99.5469 162.755 99.5469 150.092 107.357 142.281L199.281 50.3573C207.092 42.5468 219.755 42.5468 227.566 50.3573L319.489 142.281C327.3 150.092 327.3 162.755 319.489 170.565L227.566 262.489C219.755 270.3 207.092 270.3 199.281 262.489L107.357 170.565ZM330.803 181.879L238.879 273.803C231.85 280.833 231.85 292.229 238.879 299.259L330.803 391.183C337.833 398.212 349.23 398.212 356.259 391.183L448.183 299.259C455.212 292.229 455.212 280.833 448.183 273.803L356.259 181.879C349.23 174.85 337.833 174.85 330.803 181.879ZM237.465 272.389C229.655 280.199 229.655 292.863 237.465 300.673L329.389 392.597C337.199 400.408 349.863 400.407 357.673 392.597L449.597 300.673C457.408 292.863 457.408 280.199 449.597 272.389L357.673 180.465C349.863 172.654 337.199 172.654 329.389 180.465L237.465 272.389ZM108.772 -116.52L200.696 -208.444C207.725 -215.473 219.122 -215.473 226.151 -208.444L318.075 -116.52C325.105 -109.49 325.105 -98.0935 318.075 -91.064L226.151 0.859851C219.122 7.88929 207.725 7.88929 200.696 0.859851L108.772 -91.064C101.742 -98.0935 101.742 -109.49 108.772 -116.52ZM107.357 -89.6498C99.5469 -97.4603 99.5469 -110.124 107.357 -117.934L199.281 -209.858C207.092 -217.668 219.755 -217.668 227.566 -209.858L319.489 -117.934C327.3 -110.124 327.3 -97.4603 319.489 -89.6498L227.566 2.27406C219.755 10.0845 207.092 10.0846 199.281 2.27406L107.357 -89.6498ZM330.803 -78.3361L238.879 13.5878C231.85 20.6172 231.85 32.0142 238.879 39.0436L330.803 130.967C337.833 137.997 349.23 137.997 356.259 130.967L448.183 39.0436C455.212 32.0142 455.212 20.6172 448.183 13.5878L356.259 -78.3361C349.23 -85.3655 337.833 -85.3656 330.803 -78.3361ZM237.465 12.1736C229.655 19.984 229.655 32.6473 237.465 40.4578L329.389 132.382C337.199 140.192 349.863 140.192 357.673 132.382L449.597 40.4578C457.408 32.6473 457.408 19.9841 449.597 12.1736L357.673 -79.7503C349.863 -87.5608 337.199 -87.5608 329.389 -79.7503L237.465 12.1736ZM368.987 143.695L460.911 51.7715C467.94 44.7421 479.337 44.7421 486.367 51.7715L578.291 143.695C585.32 150.725 585.32 162.122 578.291 169.151L486.367 261.075C479.337 268.105 467.94 268.105 460.911 261.075L368.987 169.151C361.957 162.122 361.957 150.725 368.987 143.695ZM367.573 170.565C359.762 162.755 359.762 150.092 367.573 142.281L459.497 50.3573C467.307 42.5468 479.97 42.5468 487.781 50.3573L579.705 142.281C587.515 150.092 587.515 162.755 579.705 170.565L487.781 262.489C479.97 270.3 467.307 270.3 459.497 262.489L367.573 170.565Z" fill="#771B2C"/>
<circle cx="590" cy="222.5" r="10" fill="#69DBFF"/>
<circle cx="663.5" cy="200" r="12.5" fill="#FF6FB4"/>
<circle cx="501.085" cy="181" r="15" fill="#FFC163"/>
<circle cx="600" cy="400" r="20" fill="#FF6969"/>
</g>
<defs>
<clipPath id="clip0_22_95">
<rect width="700" height="400" rx="40" fill="white"/>
</clipPath>
</defs>
</svg>
