<svg width="24" height="24" viewBox="0 0 24 24" fill="none" xmlns="http://www.w3.org/2000/svg">
<path fill-rule="evenodd" clip-rule="evenodd" d="M12.8571 6C12.8571 6.47339 12.4734 6.85715 12 6.85715C11.5266 6.85715 11.1429 6.47339 11.1429 6V0.857144C11.1429 0.383756 11.5266 0 12 0C12.4734 0 12.8571 0.383756 12.8571 0.857143V6ZM9.42868 7.54613C9.83864 7.30944 9.97911 6.78522 9.74241 6.37525L7.17098 1.92141C6.93429 1.51144 6.41007 1.37098 6.0001 1.60767C5.59014 1.84436 5.44968 2.36858 5.68637 2.77855L8.2578 7.2324C8.49449 7.64236 9.01871 7.78283 9.42868 7.54613ZM7.23251 8.25769C7.64248 8.49438 7.78294 9.01861 7.54625 9.42857C7.30955 9.83854 6.78533 9.979 6.37537 9.74231L1.92152 7.17088C1.51156 6.93418 1.37109 6.40996 1.60779 6C1.84448 5.59003 2.3687 5.44957 2.77867 5.68626L7.23251 8.25769ZM6.85714 12C6.85714 11.5266 6.47339 11.1428 6 11.1428H0.857143C0.383756 11.1428 0 11.5266 0 12C0 12.4734 0.383756 12.8571 0.857143 12.8571H6C6.47339 12.8571 6.85714 12.4734 6.85714 12ZM6.37533 14.2577C6.7853 14.021 7.30952 14.1615 7.54621 14.5714C7.78291 14.9814 7.64244 15.5056 7.23248 15.7423L2.77863 18.3137C2.36867 18.5504 1.84445 18.41 1.60775 18C1.37106 17.59 1.51152 17.0658 1.92149 16.8291L6.37533 14.2577ZM9.42867 16.4539C9.01871 16.2172 8.49449 16.3576 8.2578 16.7676L5.68637 21.2214C5.44967 21.6314 5.59014 22.1556 6.0001 22.3923C6.41007 22.629 6.93429 22.4885 7.17098 22.0786L9.74241 17.6247C9.9791 17.2148 9.83864 16.6905 9.42867 16.4539ZM12.0002 17.1428C11.5268 17.1428 11.143 17.5266 11.143 18V23.1429C11.143 23.6162 11.5268 24 12.0002 24C12.4736 24 12.8573 23.6162 12.8573 23.1429V18C12.8573 17.5266 12.4736 17.1428 12.0002 17.1428ZM14.5715 7.54614C14.9815 7.78284 15.5057 7.64237 15.7424 7.23241L18.3138 2.77856C18.5505 2.36859 18.41 1.84437 18.0001 1.60768C17.5901 1.37098 17.0659 1.51145 16.8292 1.92141L14.2578 6.37526C14.0211 6.78523 14.1615 7.30945 14.5715 7.54614ZM17.6248 9.74231C17.2149 9.979 16.6907 9.83854 16.454 9.42858C16.2173 9.01861 16.3577 8.49439 16.7677 8.2577L21.2215 5.68626C21.6315 5.44957 22.1557 5.59004 22.3924 6C22.6291 6.40997 22.4887 6.93419 22.0787 7.17088L17.6248 9.74231ZM17.143 12C17.143 12.4734 17.5268 12.8572 18.0002 12.8572H23.143C23.6164 12.8572 24.0002 12.4734 24.0002 12C24.0002 11.5266 23.6164 11.1429 23.143 11.1429H18.0002C17.5268 11.1429 17.143 11.5266 17.143 12ZM16.7677 15.7423C16.3577 15.5056 16.2172 14.9814 16.4539 14.5714C16.6906 14.1615 17.2148 14.021 17.6248 14.2577L22.0787 16.8291C22.4886 17.0658 22.6291 17.59 22.3924 18C22.1557 18.41 21.6315 18.5504 21.2215 18.3137L16.7677 15.7423ZM14.5715 16.4538C14.1615 16.6905 14.0211 17.2147 14.2578 17.6247L16.8292 22.0786C17.0659 22.4885 17.5901 22.629 18.0001 22.3923C18.41 22.1556 18.5505 21.6314 18.3138 21.2214L15.7424 16.7676C15.5057 16.3576 14.9815 16.2171 14.5715 16.4538Z" fill="url(#paint0_angular_106_640)"/>
<defs>
<radialGradient id="paint0_angular_106_640" cx="0" cy="0" r="1" gradientUnits="userSpaceOnUse" gradientTransform="translate(12.0001 12) scale(12.0001)">
<stop offset="0.760317"/>
<stop offset="0.760417" stop-color="#0C35D7" stop-opacity="0"/>
<stop offset="1" stop-opacity="0"/>
</radialGradient>
</defs>
</svg>
